<?xml version="1.0" encoding="utf-8" standalone="no"?>
<!DOCTYPE svg PUBLIC "-//W3C//DTD SVG 1.1//EN"
  "http://www.w3.org/Graphics/SVG/1.1/DTD/svg11.dtd">
<svg xmlns:xlink="http://www.w3.org/1999/xlink" width="720pt" height="504pt" viewBox="0 0 720 504" xmlns="http://www.w3.org/2000/svg" version="1.1">
 <metadata>
  <rdf:RDF xmlns:dc="http://purl.org/dc/elements/1.1/" xmlns:cc="http://creativecommons.org/ns#" xmlns:rdf="http://www.w3.org/1999/02/22-rdf-syntax-ns#">
   <cc:Work>
    <dc:type rdf:resource="http://purl.org/dc/dcmitype/StillImage"/>
    <dc:date>2023-09-13T21:47:20.288766</dc:date>
    <dc:format>image/svg+xml</dc:format>
    <dc:creator>
     <cc:Agent>
      <dc:title>Matplotlib v3.5.1, https://matplotlib.org/</dc:title>
     </cc:Agent>
    </dc:creator>
   </cc:Work>
  </rdf:RDF>
 </metadata>
 <defs>
  <style type="text/css">*{stroke-linejoin: round; stroke-linecap: butt}</style>
 </defs>
 <g id="figure_1">
  <g id="patch_1">
   <path d="M 0 504 
L 720 504 
L 720 0 
L 0 0 
z
" style="fill: #ffffff"/>
  </g>
  <g id="axes_1">
   <g id="patch_2">
    <path d="M 44.70149 482.38601 
L 716.99976 482.38601 
L 716.99976 18.118365 
L 44.70149 18.118365 
z
" style="fill: #ffffff"/>
   </g>
   <g id="patch_3">
    <path d="M 75.260502 482.38601 
L 100.726346 482.38601 
L 100.726346 108.259678 
L 75.260502 108.259678 
z
" clip-path="url(#p66f01662c3)" style="fill: #6495ed"/>
   </g>
   <g id="patch_4">
    <path d="M 245.032793 482.38601 
L 270.498636 482.38601 
L 270.498636 237.488816 
L 245.032793 237.488816 
z
" clip-path="url(#p66f01662c3)" style="fill: #6495ed"/>
   </g>
   <g id="patch_5">
    <path d="M 414.805083 482.38601 
L 440.270927 482.38601 
L 440.270927 191.221593 
L 414.805083 191.221593 
z
" clip-path="url(#p66f01662c3)" style="fill: #6495ed"/>
   </g>
   <g id="patch_6">
    <path d="M 584.577373 482.38601 
L 610.043217 482.38601 
L 610.043217 271.391522 
L 584.577373 271.391522 
z
" clip-path="url(#p66f01662c3)" style="fill: #6495ed"/>
   </g>
   <g id="patch_7">
    <path d="M 100.726346 482.38601 
L 126.192189 482.38601 
L 126.192189 107.461967 
L 100.726346 107.461967 
z
" clip-path="url(#p66f01662c3)" style="fill: #0000ff"/>
   </g>
   <g id="patch_8">
    <path d="M 270.498636 482.38601 
L 295.96448 482.38601 
L 295.96448 245.864778 
L 270.498636 245.864778 
z
" clip-path="url(#p66f01662c3)" style="fill: #0000ff"/>
   </g>
   <g id="patch_9">
    <path d="M 440.270927 482.38601 
L 465.73677 482.38601 
L 465.73677 163.301718 
L 440.270927 163.301718 
z
" clip-path="url(#p66f01662c3)" style="fill: #0000ff"/>
   </g>
   <g id="patch_10">
    <path d="M 610.043217 482.38601 
L 635.509061 482.38601 
L 635.509061 294.525133 
L 610.043217 294.525133 
z
" clip-path="url(#p66f01662c3)" style="fill: #0000ff"/>
   </g>
   <g id="patch_11">
    <path d="M 126.192189 482.38601 
L 151.658033 482.38601 
L 151.658033 106.664256 
L 126.192189 106.664256 
z
" clip-path="url(#p66f01662c3)" style="fill: #f4a460"/>
   </g>
   <g id="patch_12">
    <path d="M 295.96448 482.38601 
L 321.430323 482.38601 
L 321.430323 235.494539 
L 295.96448 235.494539 
z
" clip-path="url(#p66f01662c3)" style="fill: #f4a460"/>
   </g>
   <g id="patch_13">
    <path d="M 465.73677 482.38601 
L 491.202614 482.38601 
L 491.202614 168.087982 
L 465.73677 168.087982 
z
" clip-path="url(#p66f01662c3)" style="fill: #f4a460"/>
   </g>
   <g id="patch_14">
    <path d="M 635.509061 482.38601 
L 660.974904 482.38601 
L 660.974904 278.969774 
L 635.509061 278.969774 
z
" clip-path="url(#p66f01662c3)" style="fill: #f4a460"/>
   </g>
   <g id="patch_15">
    <path d="M 151.658033 482.38601 
L 177.123877 482.38601 
L 177.123877 105.866545 
L 151.658033 105.866545 
z
" clip-path="url(#p66f01662c3)" style="fill: #a0522d"/>
   </g>
   <g id="patch_16">
    <path d="M 321.430323 482.38601 
L 346.896167 482.38601 
L 346.896167 236.29225 
L 321.430323 236.29225 
z
" clip-path="url(#p66f01662c3)" style="fill: #a0522d"/>
   </g>
   <g id="patch_17">
    <path d="M 491.202614 482.38601 
L 516.668457 482.38601 
L 516.668457 150.139491 
L 491.202614 150.139491 
z
" clip-path="url(#p66f01662c3)" style="fill: #a0522d"/>
   </g>
   <g id="patch_18">
    <path d="M 660.974904 482.38601 
L 686.440748 482.38601 
L 686.440748 286.946881 
L 660.974904 286.946881 
z
" clip-path="url(#p66f01662c3)" style="fill: #a0522d"/>
   </g>
   <g id="matplotlib.axis_1">
    <g id="xtick_1">
     <g id="line2d_1">
      <defs>
       <path id="mcbc042824a" d="M 0 0 
L 0 3.5 
" style="stroke: #000000; stroke-width: 0.8"/>
      </defs>
      <g>
       <use xlink:href="#mcbc042824a" x="113.459268" y="482.38601" style="stroke: #000000; stroke-width: 0.8"/>
      </g>
     </g>
     <g id="text_1">
      <!-- accuracy -->
      <g transform="translate(86.388018 498.504135)scale(0.12 -0.12)">
       <defs>
        <path id="DejaVuSans-61" d="M 2194 1759 
Q 1497 1759 1228 1600 
Q 959 1441 959 1056 
Q 959 750 1161 570 
Q 1363 391 1709 391 
Q 2188 391 2477 730 
Q 2766 1069 2766 1631 
L 2766 1759 
L 2194 1759 
z
M 3341 1997 
L 3341 0 
L 2766 0 
L 2766 531 
Q 2569 213 2275 61 
Q 1981 -91 1556 -91 
Q 1019 -91 701 211 
Q 384 513 384 1019 
Q 384 1609 779 1909 
Q 1175 2209 1959 2209 
L 2766 2209 
L 2766 2266 
Q 2766 2663 2505 2880 
Q 2244 3097 1772 3097 
Q 1472 3097 1187 3025 
Q 903 2953 641 2809 
L 641 3341 
Q 956 3463 1253 3523 
Q 1550 3584 1831 3584 
Q 2591 3584 2966 3190 
Q 3341 2797 3341 1997 
z
" transform="scale(0.015625)"/>
        <path id="DejaVuSans-63" d="M 3122 3366 
L 3122 2828 
Q 2878 2963 2633 3030 
Q 2388 3097 2138 3097 
Q 1578 3097 1268 2742 
Q 959 2388 959 1747 
Q 959 1106 1268 751 
Q 1578 397 2138 397 
Q 2388 397 2633 464 
Q 2878 531 3122 666 
L 3122 134 
Q 2881 22 2623 -34 
Q 2366 -91 2075 -91 
Q 1284 -91 818 406 
Q 353 903 353 1747 
Q 353 2603 823 3093 
Q 1294 3584 2113 3584 
Q 2378 3584 2631 3529 
Q 2884 3475 3122 3366 
z
" transform="scale(0.015625)"/>
        <path id="DejaVuSans-75" d="M 544 1381 
L 544 3500 
L 1119 3500 
L 1119 1403 
Q 1119 906 1312 657 
Q 1506 409 1894 409 
Q 2359 409 2629 706 
Q 2900 1003 2900 1516 
L 2900 3500 
L 3475 3500 
L 3475 0 
L 2900 0 
L 2900 538 
Q 2691 219 2414 64 
Q 2138 -91 1772 -91 
Q 1169 -91 856 284 
Q 544 659 544 1381 
z
M 1991 3584 
L 1991 3584 
z
" transform="scale(0.015625)"/>
        <path id="DejaVuSans-72" d="M 2631 2963 
Q 2534 3019 2420 3045 
Q 2306 3072 2169 3072 
Q 1681 3072 1420 2755 
Q 1159 2438 1159 1844 
L 1159 0 
L 581 0 
L 581 3500 
L 1159 3500 
L 1159 2956 
Q 1341 3275 1631 3429 
Q 1922 3584 2338 3584 
Q 2397 3584 2469 3576 
Q 2541 3569 2628 3553 
L 2631 2963 
z
" transform="scale(0.015625)"/>
        <path id="DejaVuSans-79" d="M 2059 -325 
Q 1816 -950 1584 -1140 
Q 1353 -1331 966 -1331 
L 506 -1331 
L 506 -850 
L 844 -850 
Q 1081 -850 1212 -737 
Q 1344 -625 1503 -206 
L 1606 56 
L 191 3500 
L 800 3500 
L 1894 763 
L 2988 3500 
L 3597 3500 
L 2059 -325 
z
" transform="scale(0.015625)"/>
       </defs>
       <use xlink:href="#DejaVuSans-61"/>
       <use xlink:href="#DejaVuSans-63" x="61.279297"/>
       <use xlink:href="#DejaVuSans-63" x="116.259766"/>
       <use xlink:href="#DejaVuSans-75" x="171.240234"/>
       <use xlink:href="#DejaVuSans-72" x="234.619141"/>
       <use xlink:href="#DejaVuSans-61" x="275.732422"/>
       <use xlink:href="#DejaVuSans-63" x="337.011719"/>
       <use xlink:href="#DejaVuSans-79" x="391.992188"/>
      </g>
     </g>
    </g>
    <g id="xtick_2">
     <g id="line2d_2">
      <g>
       <use xlink:href="#mcbc042824a" x="283.231558" y="482.38601" style="stroke: #000000; stroke-width: 0.8"/>
      </g>
     </g>
     <g id="text_2">
      <!-- f1 -->
      <g transform="translate(277.301871 498.504135)scale(0.12 -0.12)">
       <defs>
        <path id="DejaVuSans-66" d="M 2375 4863 
L 2375 4384 
L 1825 4384 
Q 1516 4384 1395 4259 
Q 1275 4134 1275 3809 
L 1275 3500 
L 2222 3500 
L 2222 3053 
L 1275 3053 
L 1275 0 
L 697 0 
L 697 3053 
L 147 3053 
L 147 3500 
L 697 3500 
L 697 3744 
Q 697 4328 969 4595 
Q 1241 4863 1831 4863 
L 2375 4863 
z
" transform="scale(0.015625)"/>
        <path id="DejaVuSans-31" d="M 794 531 
L 1825 531 
L 1825 4091 
L 703 3866 
L 703 4441 
L 1819 4666 
L 2450 4666 
L 2450 531 
L 3481 531 
L 3481 0 
L 794 0 
L 794 531 
z
" transform="scale(0.015625)"/>
       </defs>
       <use xlink:href="#DejaVuSans-66"/>
       <use xlink:href="#DejaVuSans-31" x="35.205078"/>
      </g>
     </g>
    </g>
    <g id="xtick_3">
     <g id="line2d_3">
      <g>
       <use xlink:href="#mcbc042824a" x="453.003848" y="482.38601" style="stroke: #000000; stroke-width: 0.8"/>
      </g>
     </g>
     <g id="text_3">
      <!-- precision -->
      <g transform="translate(425.939161 498.504135)scale(0.12 -0.12)">
       <defs>
        <path id="DejaVuSans-70" d="M 1159 525 
L 1159 -1331 
L 581 -1331 
L 581 3500 
L 1159 3500 
L 1159 2969 
Q 1341 3281 1617 3432 
Q 1894 3584 2278 3584 
Q 2916 3584 3314 3078 
Q 3713 2572 3713 1747 
Q 3713 922 3314 415 
Q 2916 -91 2278 -91 
Q 1894 -91 1617 61 
Q 1341 213 1159 525 
z
M 3116 1747 
Q 3116 2381 2855 2742 
Q 2594 3103 2138 3103 
Q 1681 3103 1420 2742 
Q 1159 2381 1159 1747 
Q 1159 1113 1420 752 
Q 1681 391 2138 391 
Q 2594 391 2855 752 
Q 3116 1113 3116 1747 
z
" transform="scale(0.015625)"/>
        <path id="DejaVuSans-65" d="M 3597 1894 
L 3597 1613 
L 953 1613 
Q 991 1019 1311 708 
Q 1631 397 2203 397 
Q 2534 397 2845 478 
Q 3156 559 3463 722 
L 3463 178 
Q 3153 47 2828 -22 
Q 2503 -91 2169 -91 
Q 1331 -91 842 396 
Q 353 884 353 1716 
Q 353 2575 817 3079 
Q 1281 3584 2069 3584 
Q 2775 3584 3186 3129 
Q 3597 2675 3597 1894 
z
M 3022 2063 
Q 3016 2534 2758 2815 
Q 2500 3097 2075 3097 
Q 1594 3097 1305 2825 
Q 1016 2553 972 2059 
L 3022 2063 
z
" transform="scale(0.015625)"/>
        <path id="DejaVuSans-69" d="M 603 3500 
L 1178 3500 
L 1178 0 
L 603 0 
L 603 3500 
z
M 603 4863 
L 1178 4863 
L 1178 4134 
L 603 4134 
L 603 4863 
z
" transform="scale(0.015625)"/>
        <path id="DejaVuSans-73" d="M 2834 3397 
L 2834 2853 
Q 2591 2978 2328 3040 
Q 2066 3103 1784 3103 
Q 1356 3103 1142 2972 
Q 928 2841 928 2578 
Q 928 2378 1081 2264 
Q 1234 2150 1697 2047 
L 1894 2003 
Q 2506 1872 2764 1633 
Q 3022 1394 3022 966 
Q 3022 478 2636 193 
Q 2250 -91 1575 -91 
Q 1294 -91 989 -36 
Q 684 19 347 128 
L 347 722 
Q 666 556 975 473 
Q 1284 391 1588 391 
Q 1994 391 2212 530 
Q 2431 669 2431 922 
Q 2431 1156 2273 1281 
Q 2116 1406 1581 1522 
L 1381 1569 
Q 847 1681 609 1914 
Q 372 2147 372 2553 
Q 372 3047 722 3315 
Q 1072 3584 1716 3584 
Q 2034 3584 2315 3537 
Q 2597 3491 2834 3397 
z
" transform="scale(0.015625)"/>
        <path id="DejaVuSans-6f" d="M 1959 3097 
Q 1497 3097 1228 2736 
Q 959 2375 959 1747 
Q 959 1119 1226 758 
Q 1494 397 1959 397 
Q 2419 397 2687 759 
Q 2956 1122 2956 1747 
Q 2956 2369 2687 2733 
Q 2419 3097 1959 3097 
z
M 1959 3584 
Q 2709 3584 3137 3096 
Q 3566 2609 3566 1747 
Q 3566 888 3137 398 
Q 2709 -91 1959 -91 
Q 1206 -91 779 398 
Q 353 888 353 1747 
Q 353 2609 779 3096 
Q 1206 3584 1959 3584 
z
" transform="scale(0.015625)"/>
        <path id="DejaVuSans-6e" d="M 3513 2113 
L 3513 0 
L 2938 0 
L 2938 2094 
Q 2938 2591 2744 2837 
Q 2550 3084 2163 3084 
Q 1697 3084 1428 2787 
Q 1159 2491 1159 1978 
L 1159 0 
L 581 0 
L 581 3500 
L 1159 3500 
L 1159 2956 
Q 1366 3272 1645 3428 
Q 1925 3584 2291 3584 
Q 2894 3584 3203 3211 
Q 3513 2838 3513 2113 
z
" transform="scale(0.015625)"/>
       </defs>
       <use xlink:href="#DejaVuSans-70"/>
       <use xlink:href="#DejaVuSans-72" x="63.476562"/>
       <use xlink:href="#DejaVuSans-65" x="102.339844"/>
       <use xlink:href="#DejaVuSans-63" x="163.863281"/>
       <use xlink:href="#DejaVuSans-69" x="218.84375"/>
       <use xlink:href="#DejaVuSans-73" x="246.626953"/>
       <use xlink:href="#DejaVuSans-69" x="298.726562"/>
       <use xlink:href="#DejaVuSans-6f" x="326.509766"/>
       <use xlink:href="#DejaVuSans-6e" x="387.691406"/>
      </g>
     </g>
    </g>
    <g id="xtick_4">
     <g id="line2d_4">
      <g>
       <use xlink:href="#mcbc042824a" x="622.776139" y="482.38601" style="stroke: #000000; stroke-width: 0.8"/>
      </g>
     </g>
     <g id="text_4">
      <!-- recall -->
      <g transform="translate(606.443014 498.504135)scale(0.12 -0.12)">
       <defs>
        <path id="DejaVuSans-6c" d="M 603 4863 
L 1178 4863 
L 1178 0 
L 603 0 
L 603 4863 
z
" transform="scale(0.015625)"/>
       </defs>
       <use xlink:href="#DejaVuSans-72"/>
       <use xlink:href="#DejaVuSans-65" x="38.863281"/>
       <use xlink:href="#DejaVuSans-63" x="100.386719"/>
       <use xlink:href="#DejaVuSans-61" x="155.367188"/>
       <use xlink:href="#DejaVuSans-6c" x="216.646484"/>
       <use xlink:href="#DejaVuSans-6c" x="244.429688"/>
      </g>
     </g>
    </g>
   </g>
   <g id="matplotlib.axis_2">
    <g id="ytick_1">
     <g id="line2d_5">
      <defs>
       <path id="mf9182ec29d" d="M 0 0 
L -3.5 0 
" style="stroke: #000000; stroke-width: 0.8"/>
      </defs>
      <g>
       <use xlink:href="#mf9182ec29d" x="44.70149" y="482.38601" style="stroke: #000000; stroke-width: 0.8"/>
      </g>
     </g>
     <g id="text_5">
      <!-- 0 -->
      <g transform="translate(31.33899 486.185229)scale(0.1 -0.1)">
       <defs>
        <path id="DejaVuSans-30" d="M 2034 4250 
Q 1547 4250 1301 3770 
Q 1056 3291 1056 2328 
Q 1056 1369 1301 889 
Q 1547 409 2034 409 
Q 2525 409 2770 889 
Q 3016 1369 3016 2328 
Q 3016 3291 2770 3770 
Q 2525 4250 2034 4250 
z
M 2034 4750 
Q 2819 4750 3233 4129 
Q 3647 3509 3647 2328 
Q 3647 1150 3233 529 
Q 2819 -91 2034 -91 
Q 1250 -91 836 529 
Q 422 1150 422 2328 
Q 422 3509 836 4129 
Q 1250 4750 2034 4750 
z
" transform="scale(0.015625)"/>
       </defs>
       <use xlink:href="#DejaVuSans-30"/>
      </g>
     </g>
    </g>
    <g id="ytick_2">
     <g id="line2d_6">
      <g>
       <use xlink:href="#mf9182ec29d" x="44.70149" y="402.614937" style="stroke: #000000; stroke-width: 0.8"/>
      </g>
     </g>
     <g id="text_6">
      <!-- 20 -->
      <g transform="translate(24.97649 406.414156)scale(0.1 -0.1)">
       <defs>
        <path id="DejaVuSans-32" d="M 1228 531 
L 3431 531 
L 3431 0 
L 469 0 
L 469 531 
Q 828 903 1448 1529 
Q 2069 2156 2228 2338 
Q 2531 2678 2651 2914 
Q 2772 3150 2772 3378 
Q 2772 3750 2511 3984 
Q 2250 4219 1831 4219 
Q 1534 4219 1204 4116 
Q 875 4013 500 3803 
L 500 4441 
Q 881 4594 1212 4672 
Q 1544 4750 1819 4750 
Q 2544 4750 2975 4387 
Q 3406 4025 3406 3419 
Q 3406 3131 3298 2873 
Q 3191 2616 2906 2266 
Q 2828 2175 2409 1742 
Q 1991 1309 1228 531 
z
" transform="scale(0.015625)"/>
       </defs>
       <use xlink:href="#DejaVuSans-32"/>
       <use xlink:href="#DejaVuSans-30" x="63.623047"/>
      </g>
     </g>
    </g>
    <g id="ytick_3">
     <g id="line2d_7">
      <g>
       <use xlink:href="#mf9182ec29d" x="44.70149" y="322.843864" style="stroke: #000000; stroke-width: 0.8"/>
      </g>
     </g>
     <g id="text_7">
      <!-- 40 -->
      <g transform="translate(24.97649 326.643083)scale(0.1 -0.1)">
       <defs>
        <path id="DejaVuSans-34" d="M 2419 4116 
L 825 1625 
L 2419 1625 
L 2419 4116 
z
M 2253 4666 
L 3047 4666 
L 3047 1625 
L 3713 1625 
L 3713 1100 
L 3047 1100 
L 3047 0 
L 2419 0 
L 2419 1100 
L 313 1100 
L 313 1709 
L 2253 4666 
z
" transform="scale(0.015625)"/>
       </defs>
       <use xlink:href="#DejaVuSans-34"/>
       <use xlink:href="#DejaVuSans-30" x="63.623047"/>
      </g>
     </g>
    </g>
    <g id="ytick_4">
     <g id="line2d_8">
      <g>
       <use xlink:href="#mf9182ec29d" x="44.70149" y="243.072791" style="stroke: #000000; stroke-width: 0.8"/>
      </g>
     </g>
     <g id="text_8">
      <!-- 60 -->
      <g transform="translate(24.97649 246.87201)scale(0.1 -0.1)">
       <defs>
        <path id="DejaVuSans-36" d="M 2113 2584 
Q 1688 2584 1439 2293 
Q 1191 2003 1191 1497 
Q 1191 994 1439 701 
Q 1688 409 2113 409 
Q 2538 409 2786 701 
Q 3034 994 3034 1497 
Q 3034 2003 2786 2293 
Q 2538 2584 2113 2584 
z
M 3366 4563 
L 3366 3988 
Q 3128 4100 2886 4159 
Q 2644 4219 2406 4219 
Q 1781 4219 1451 3797 
Q 1122 3375 1075 2522 
Q 1259 2794 1537 2939 
Q 1816 3084 2150 3084 
Q 2853 3084 3261 2657 
Q 3669 2231 3669 1497 
Q 3669 778 3244 343 
Q 2819 -91 2113 -91 
Q 1303 -91 875 529 
Q 447 1150 447 2328 
Q 447 3434 972 4092 
Q 1497 4750 2381 4750 
Q 2619 4750 2861 4703 
Q 3103 4656 3366 4563 
z
" transform="scale(0.015625)"/>
       </defs>
       <use xlink:href="#DejaVuSans-36"/>
       <use xlink:href="#DejaVuSans-30" x="63.623047"/>
      </g>
     </g>
    </g>
    <g id="ytick_5">
     <g id="line2d_9">
      <g>
       <use xlink:href="#mf9182ec29d" x="44.70149" y="163.301718" style="stroke: #000000; stroke-width: 0.8"/>
      </g>
     </g>
     <g id="text_9">
      <!-- 80 -->
      <g transform="translate(24.97649 167.100937)scale(0.1 -0.1)">
       <defs>
        <path id="DejaVuSans-38" d="M 2034 2216 
Q 1584 2216 1326 1975 
Q 1069 1734 1069 1313 
Q 1069 891 1326 650 
Q 1584 409 2034 409 
Q 2484 409 2743 651 
Q 3003 894 3003 1313 
Q 3003 1734 2745 1975 
Q 2488 2216 2034 2216 
z
M 1403 2484 
Q 997 2584 770 2862 
Q 544 3141 544 3541 
Q 544 4100 942 4425 
Q 1341 4750 2034 4750 
Q 2731 4750 3128 4425 
Q 3525 4100 3525 3541 
Q 3525 3141 3298 2862 
Q 3072 2584 2669 2484 
Q 3125 2378 3379 2068 
Q 3634 1759 3634 1313 
Q 3634 634 3220 271 
Q 2806 -91 2034 -91 
Q 1263 -91 848 271 
Q 434 634 434 1313 
Q 434 1759 690 2068 
Q 947 2378 1403 2484 
z
M 1172 3481 
Q 1172 3119 1398 2916 
Q 1625 2713 2034 2713 
Q 2441 2713 2670 2916 
Q 2900 3119 2900 3481 
Q 2900 3844 2670 4047 
Q 2441 4250 2034 4250 
Q 1625 4250 1398 4047 
Q 1172 3844 1172 3481 
z
" transform="scale(0.015625)"/>
       </defs>
       <use xlink:href="#DejaVuSans-38"/>
       <use xlink:href="#DejaVuSans-30" x="63.623047"/>
      </g>
     </g>
    </g>
    <g id="ytick_6">
     <g id="line2d_10">
      <g>
       <use xlink:href="#mf9182ec29d" x="44.70149" y="83.530645" style="stroke: #000000; stroke-width: 0.8"/>
      </g>
     </g>
     <g id="text_10">
      <!-- 100 -->
      <g transform="translate(18.61399 87.329864)scale(0.1 -0.1)">
       <use xlink:href="#DejaVuSans-31"/>
       <use xlink:href="#DejaVuSans-30" x="63.623047"/>
       <use xlink:href="#DejaVuSans-30" x="127.246094"/>
      </g>
     </g>
    </g>
    <g id="text_11">
     <!-- Score -->
     <g transform="translate(12.118365 267.055)rotate(-90)scale(0.12 -0.12)">
      <defs>
       <path id="DejaVuSans-53" d="M 3425 4513 
L 3425 3897 
Q 3066 4069 2747 4153 
Q 2428 4238 2131 4238 
Q 1616 4238 1336 4038 
Q 1056 3838 1056 3469 
Q 1056 3159 1242 3001 
Q 1428 2844 1947 2747 
L 2328 2669 
Q 3034 2534 3370 2195 
Q 3706 1856 3706 1288 
Q 3706 609 3251 259 
Q 2797 -91 1919 -91 
Q 1588 -91 1214 -16 
Q 841 59 441 206 
L 441 856 
Q 825 641 1194 531 
Q 1563 422 1919 422 
Q 2459 422 2753 634 
Q 3047 847 3047 1241 
Q 3047 1584 2836 1778 
Q 2625 1972 2144 2069 
L 1759 2144 
Q 1053 2284 737 2584 
Q 422 2884 422 3419 
Q 422 4038 858 4394 
Q 1294 4750 2059 4750 
Q 2388 4750 2728 4690 
Q 3069 4631 3425 4513 
z
" transform="scale(0.015625)"/>
      </defs>
      <use xlink:href="#DejaVuSans-53"/>
      <use xlink:href="#DejaVuSans-63" x="63.476562"/>
      <use xlink:href="#DejaVuSans-6f" x="118.457031"/>
      <use xlink:href="#DejaVuSans-72" x="179.638672"/>
      <use xlink:href="#DejaVuSans-65" x="218.501953"/>
     </g>
    </g>
   </g>
   <g id="patch_19">
    <path d="M 44.70149 482.38601 
L 44.70149 18.118365 
" style="fill: none; stroke: #000000; stroke-width: 0.8; stroke-linejoin: miter; stroke-linecap: square"/>
   </g>
   <g id="patch_20">
    <path d="M 716.99976 482.38601 
L 716.99976 18.118365 
" style="fill: none; stroke: #000000; stroke-width: 0.8; stroke-linejoin: miter; stroke-linecap: square"/>
   </g>
   <g id="patch_21">
    <path d="M 44.70149 482.38601 
L 716.99976 482.38601 
" style="fill: none; stroke: #000000; stroke-width: 0.8; stroke-linejoin: miter; stroke-linecap: square"/>
   </g>
   <g id="patch_22">
    <path d="M 44.70149 18.118365 
L 716.99976 18.118365 
" style="fill: none; stroke: #000000; stroke-width: 0.8; stroke-linejoin: miter; stroke-linecap: square"/>
   </g>
   <g id="text_12">
    <!-- 93.8 -->
    <g transform="translate(76.860612 103.17999)scale(0.1 -0.1)">
     <defs>
      <path id="DejaVuSans-39" d="M 703 97 
L 703 672 
Q 941 559 1184 500 
Q 1428 441 1663 441 
Q 2288 441 2617 861 
Q 2947 1281 2994 2138 
Q 2813 1869 2534 1725 
Q 2256 1581 1919 1581 
Q 1219 1581 811 2004 
Q 403 2428 403 3163 
Q 403 3881 828 4315 
Q 1253 4750 1959 4750 
Q 2769 4750 3195 4129 
Q 3622 3509 3622 2328 
Q 3622 1225 3098 567 
Q 2575 -91 1691 -91 
Q 1453 -91 1209 -44 
Q 966 3 703 97 
z
M 1959 2075 
Q 2384 2075 2632 2365 
Q 2881 2656 2881 3163 
Q 2881 3666 2632 3958 
Q 2384 4250 1959 4250 
Q 1534 4250 1286 3958 
Q 1038 3666 1038 3163 
Q 1038 2656 1286 2365 
Q 1534 2075 1959 2075 
z
" transform="scale(0.015625)"/>
      <path id="DejaVuSans-33" d="M 2597 2516 
Q 3050 2419 3304 2112 
Q 3559 1806 3559 1356 
Q 3559 666 3084 287 
Q 2609 -91 1734 -91 
Q 1441 -91 1130 -33 
Q 819 25 488 141 
L 488 750 
Q 750 597 1062 519 
Q 1375 441 1716 441 
Q 2309 441 2620 675 
Q 2931 909 2931 1356 
Q 2931 1769 2642 2001 
Q 2353 2234 1838 2234 
L 1294 2234 
L 1294 2753 
L 1863 2753 
Q 2328 2753 2575 2939 
Q 2822 3125 2822 3475 
Q 2822 3834 2567 4026 
Q 2313 4219 1838 4219 
Q 1578 4219 1281 4162 
Q 984 4106 628 3988 
L 628 4550 
Q 988 4650 1302 4700 
Q 1616 4750 1894 4750 
Q 2613 4750 3031 4423 
Q 3450 4097 3450 3541 
Q 3450 3153 3228 2886 
Q 3006 2619 2597 2516 
z
" transform="scale(0.015625)"/>
      <path id="DejaVuSans-2e" d="M 684 794 
L 1344 794 
L 1344 0 
L 684 0 
L 684 794 
z
" transform="scale(0.015625)"/>
     </defs>
     <use xlink:href="#DejaVuSans-39"/>
     <use xlink:href="#DejaVuSans-33" x="63.623047"/>
     <use xlink:href="#DejaVuSans-2e" x="127.246094"/>
     <use xlink:href="#DejaVuSans-38" x="159.033203"/>
    </g>
   </g>
   <g id="text_13">
    <!-- 61.4 -->
    <g transform="translate(246.632902 232.409128)scale(0.1 -0.1)">
     <use xlink:href="#DejaVuSans-36"/>
     <use xlink:href="#DejaVuSans-31" x="63.623047"/>
     <use xlink:href="#DejaVuSans-2e" x="127.246094"/>
     <use xlink:href="#DejaVuSans-34" x="159.033203"/>
    </g>
   </g>
   <g id="text_14">
    <!-- 73 -->
    <g transform="translate(421.175505 186.141906)scale(0.1 -0.1)">
     <defs>
      <path id="DejaVuSans-37" d="M 525 4666 
L 3525 4666 
L 3525 4397 
L 1831 0 
L 1172 0 
L 2766 4134 
L 525 4134 
L 525 4666 
z
" transform="scale(0.015625)"/>
     </defs>
     <use xlink:href="#DejaVuSans-37"/>
     <use xlink:href="#DejaVuSans-33" x="63.623047"/>
    </g>
   </g>
   <g id="text_15">
    <!-- 52.9 -->
    <g transform="translate(586.177483 266.311834)scale(0.1 -0.1)">
     <defs>
      <path id="DejaVuSans-35" d="M 691 4666 
L 3169 4666 
L 3169 4134 
L 1269 4134 
L 1269 2991 
Q 1406 3038 1543 3061 
Q 1681 3084 1819 3084 
Q 2600 3084 3056 2656 
Q 3513 2228 3513 1497 
Q 3513 744 3044 326 
Q 2575 -91 1722 -91 
Q 1428 -91 1123 -41 
Q 819 9 494 109 
L 494 744 
Q 775 591 1075 516 
Q 1375 441 1709 441 
Q 2250 441 2565 725 
Q 2881 1009 2881 1497 
Q 2881 1984 2565 2268 
Q 2250 2553 1709 2553 
Q 1456 2553 1204 2497 
Q 953 2441 691 2322 
L 691 4666 
z
" transform="scale(0.015625)"/>
     </defs>
     <use xlink:href="#DejaVuSans-35"/>
     <use xlink:href="#DejaVuSans-32" x="63.623047"/>
     <use xlink:href="#DejaVuSans-2e" x="127.246094"/>
     <use xlink:href="#DejaVuSans-39" x="159.033203"/>
    </g>
   </g>
   <g id="text_16">
    <!-- 94 -->
    <g transform="translate(107.096768 102.382279)scale(0.1 -0.1)">
     <use xlink:href="#DejaVuSans-39"/>
     <use xlink:href="#DejaVuSans-34" x="63.623047"/>
    </g>
   </g>
   <g id="text_17">
    <!-- 59.3 -->
    <g transform="translate(272.098746 240.785091)scale(0.1 -0.1)">
     <use xlink:href="#DejaVuSans-35"/>
     <use xlink:href="#DejaVuSans-39" x="63.623047"/>
     <use xlink:href="#DejaVuSans-2e" x="127.246094"/>
     <use xlink:href="#DejaVuSans-33" x="159.033203"/>
    </g>
   </g>
   <g id="text_18">
    <!-- 80 -->
    <g transform="translate(446.641348 158.22203)scale(0.1 -0.1)">
     <use xlink:href="#DejaVuSans-38"/>
     <use xlink:href="#DejaVuSans-30" x="63.623047"/>
    </g>
   </g>
   <g id="text_19">
    <!-- 47.1 -->
    <g transform="translate(611.643326 289.445446)scale(0.1 -0.1)">
     <use xlink:href="#DejaVuSans-34"/>
     <use xlink:href="#DejaVuSans-37" x="63.623047"/>
     <use xlink:href="#DejaVuSans-2e" x="127.246094"/>
     <use xlink:href="#DejaVuSans-31" x="159.033203"/>
    </g>
   </g>
   <g id="text_20">
    <!-- 94.2 -->
    <g transform="translate(127.792299 101.584569)scale(0.1 -0.1)">
     <use xlink:href="#DejaVuSans-39"/>
     <use xlink:href="#DejaVuSans-34" x="63.623047"/>
     <use xlink:href="#DejaVuSans-2e" x="127.246094"/>
     <use xlink:href="#DejaVuSans-32" x="159.033203"/>
    </g>
   </g>
   <g id="text_21">
    <!-- 61.9 -->
    <g transform="translate(297.564589 230.414851)scale(0.1 -0.1)">
     <use xlink:href="#DejaVuSans-36"/>
     <use xlink:href="#DejaVuSans-31" x="63.623047"/>
     <use xlink:href="#DejaVuSans-2e" x="127.246094"/>
     <use xlink:href="#DejaVuSans-39" x="159.033203"/>
    </g>
   </g>
   <g id="text_22">
    <!-- 78.8 -->
    <g transform="translate(467.336879 163.008295)scale(0.1 -0.1)">
     <use xlink:href="#DejaVuSans-37"/>
     <use xlink:href="#DejaVuSans-38" x="63.623047"/>
     <use xlink:href="#DejaVuSans-2e" x="127.246094"/>
     <use xlink:href="#DejaVuSans-38" x="159.033203"/>
    </g>
   </g>
   <g id="text_23">
    <!-- 51 -->
    <g transform="translate(641.879482 273.890086)scale(0.1 -0.1)">
     <use xlink:href="#DejaVuSans-35"/>
     <use xlink:href="#DejaVuSans-31" x="63.623047"/>
    </g>
   </g>
   <g id="text_24">
    <!-- 94.4 -->
    <g transform="translate(153.258142 100.786858)scale(0.1 -0.1)">
     <use xlink:href="#DejaVuSans-39"/>
     <use xlink:href="#DejaVuSans-34" x="63.623047"/>
     <use xlink:href="#DejaVuSans-2e" x="127.246094"/>
     <use xlink:href="#DejaVuSans-34" x="159.033203"/>
    </g>
   </g>
   <g id="text_25">
    <!-- 61.7 -->
    <g transform="translate(323.030433 231.212562)scale(0.1 -0.1)">
     <use xlink:href="#DejaVuSans-36"/>
     <use xlink:href="#DejaVuSans-31" x="63.623047"/>
     <use xlink:href="#DejaVuSans-2e" x="127.246094"/>
     <use xlink:href="#DejaVuSans-37" x="159.033203"/>
    </g>
   </g>
   <g id="text_26">
    <!-- 83.3 -->
    <g transform="translate(492.802723 145.059803)scale(0.1 -0.1)">
     <use xlink:href="#DejaVuSans-38"/>
     <use xlink:href="#DejaVuSans-33" x="63.623047"/>
     <use xlink:href="#DejaVuSans-2e" x="127.246094"/>
     <use xlink:href="#DejaVuSans-33" x="159.033203"/>
    </g>
   </g>
   <g id="text_27">
    <!-- 49 -->
    <g transform="translate(667.345326 281.867194)scale(0.1 -0.1)">
     <use xlink:href="#DejaVuSans-34"/>
     <use xlink:href="#DejaVuSans-39" x="63.623047"/>
    </g>
   </g>
   <g id="text_28">
    <!-- Y1: performance of single vs ensemble model on subgroup-by-race: white -->
    <g transform="translate(158.7325 12.118365)scale(0.12 -0.12)">
     <defs>
      <path id="DejaVuSans-59" d="M -13 4666 
L 666 4666 
L 1959 2747 
L 3244 4666 
L 3922 4666 
L 2272 2222 
L 2272 0 
L 1638 0 
L 1638 2222 
L -13 4666 
z
" transform="scale(0.015625)"/>
      <path id="DejaVuSans-3a" d="M 750 794 
L 1409 794 
L 1409 0 
L 750 0 
L 750 794 
z
M 750 3309 
L 1409 3309 
L 1409 2516 
L 750 2516 
L 750 3309 
z
" transform="scale(0.015625)"/>
      <path id="DejaVuSans-20" transform="scale(0.015625)"/>
      <path id="DejaVuSans-6d" d="M 3328 2828 
Q 3544 3216 3844 3400 
Q 4144 3584 4550 3584 
Q 5097 3584 5394 3201 
Q 5691 2819 5691 2113 
L 5691 0 
L 5113 0 
L 5113 2094 
Q 5113 2597 4934 2840 
Q 4756 3084 4391 3084 
Q 3944 3084 3684 2787 
Q 3425 2491 3425 1978 
L 3425 0 
L 2847 0 
L 2847 2094 
Q 2847 2600 2669 2842 
Q 2491 3084 2119 3084 
Q 1678 3084 1418 2786 
Q 1159 2488 1159 1978 
L 1159 0 
L 581 0 
L 581 3500 
L 1159 3500 
L 1159 2956 
Q 1356 3278 1631 3431 
Q 1906 3584 2284 3584 
Q 2666 3584 2933 3390 
Q 3200 3197 3328 2828 
z
" transform="scale(0.015625)"/>
      <path id="DejaVuSans-67" d="M 2906 1791 
Q 2906 2416 2648 2759 
Q 2391 3103 1925 3103 
Q 1463 3103 1205 2759 
Q 947 2416 947 1791 
Q 947 1169 1205 825 
Q 1463 481 1925 481 
Q 2391 481 2648 825 
Q 2906 1169 2906 1791 
z
M 3481 434 
Q 3481 -459 3084 -895 
Q 2688 -1331 1869 -1331 
Q 1566 -1331 1297 -1286 
Q 1028 -1241 775 -1147 
L 775 -588 
Q 1028 -725 1275 -790 
Q 1522 -856 1778 -856 
Q 2344 -856 2625 -561 
Q 2906 -266 2906 331 
L 2906 616 
Q 2728 306 2450 153 
Q 2172 0 1784 0 
Q 1141 0 747 490 
Q 353 981 353 1791 
Q 353 2603 747 3093 
Q 1141 3584 1784 3584 
Q 2172 3584 2450 3431 
Q 2728 3278 2906 2969 
L 2906 3500 
L 3481 3500 
L 3481 434 
z
" transform="scale(0.015625)"/>
      <path id="DejaVuSans-76" d="M 191 3500 
L 800 3500 
L 1894 563 
L 2988 3500 
L 3597 3500 
L 2284 0 
L 1503 0 
L 191 3500 
z
" transform="scale(0.015625)"/>
      <path id="DejaVuSans-62" d="M 3116 1747 
Q 3116 2381 2855 2742 
Q 2594 3103 2138 3103 
Q 1681 3103 1420 2742 
Q 1159 2381 1159 1747 
Q 1159 1113 1420 752 
Q 1681 391 2138 391 
Q 2594 391 2855 752 
Q 3116 1113 3116 1747 
z
M 1159 2969 
Q 1341 3281 1617 3432 
Q 1894 3584 2278 3584 
Q 2916 3584 3314 3078 
Q 3713 2572 3713 1747 
Q 3713 922 3314 415 
Q 2916 -91 2278 -91 
Q 1894 -91 1617 61 
Q 1341 213 1159 525 
L 1159 0 
L 581 0 
L 581 4863 
L 1159 4863 
L 1159 2969 
z
" transform="scale(0.015625)"/>
      <path id="DejaVuSans-64" d="M 2906 2969 
L 2906 4863 
L 3481 4863 
L 3481 0 
L 2906 0 
L 2906 525 
Q 2725 213 2448 61 
Q 2172 -91 1784 -91 
Q 1150 -91 751 415 
Q 353 922 353 1747 
Q 353 2572 751 3078 
Q 1150 3584 1784 3584 
Q 2172 3584 2448 3432 
Q 2725 3281 2906 2969 
z
M 947 1747 
Q 947 1113 1208 752 
Q 1469 391 1925 391 
Q 2381 391 2643 752 
Q 2906 1113 2906 1747 
Q 2906 2381 2643 2742 
Q 2381 3103 1925 3103 
Q 1469 3103 1208 2742 
Q 947 2381 947 1747 
z
" transform="scale(0.015625)"/>
      <path id="DejaVuSans-2d" d="M 313 2009 
L 1997 2009 
L 1997 1497 
L 313 1497 
L 313 2009 
z
" transform="scale(0.015625)"/>
      <path id="DejaVuSans-77" d="M 269 3500 
L 844 3500 
L 1563 769 
L 2278 3500 
L 2956 3500 
L 3675 769 
L 4391 3500 
L 4966 3500 
L 4050 0 
L 3372 0 
L 2619 2869 
L 1863 0 
L 1184 0 
L 269 3500 
z
" transform="scale(0.015625)"/>
      <path id="DejaVuSans-68" d="M 3513 2113 
L 3513 0 
L 2938 0 
L 2938 2094 
Q 2938 2591 2744 2837 
Q 2550 3084 2163 3084 
Q 1697 3084 1428 2787 
Q 1159 2491 1159 1978 
L 1159 0 
L 581 0 
L 581 4863 
L 1159 4863 
L 1159 2956 
Q 1366 3272 1645 3428 
Q 1925 3584 2291 3584 
Q 2894 3584 3203 3211 
Q 3513 2838 3513 2113 
z
" transform="scale(0.015625)"/>
      <path id="DejaVuSans-74" d="M 1172 4494 
L 1172 3500 
L 2356 3500 
L 2356 3053 
L 1172 3053 
L 1172 1153 
Q 1172 725 1289 603 
Q 1406 481 1766 481 
L 2356 481 
L 2356 0 
L 1766 0 
Q 1100 0 847 248 
Q 594 497 594 1153 
L 594 3053 
L 172 3053 
L 172 3500 
L 594 3500 
L 594 4494 
L 1172 4494 
z
" transform="scale(0.015625)"/>
     </defs>
     <use xlink:href="#DejaVuSans-59"/>
     <use xlink:href="#DejaVuSans-31" x="61.083984"/>
     <use xlink:href="#DejaVuSans-3a" x="124.707031"/>
     <use xlink:href="#DejaVuSans-20" x="158.398438"/>
     <use xlink:href="#DejaVuSans-70" x="190.185547"/>
     <use xlink:href="#DejaVuSans-65" x="253.662109"/>
     <use xlink:href="#DejaVuSans-72" x="315.185547"/>
     <use xlink:href="#DejaVuSans-66" x="356.298828"/>
     <use xlink:href="#DejaVuSans-6f" x="391.503906"/>
     <use xlink:href="#DejaVuSans-72" x="452.685547"/>
     <use xlink:href="#DejaVuSans-6d" x="492.048828"/>
     <use xlink:href="#DejaVuSans-61" x="589.460938"/>
     <use xlink:href="#DejaVuSans-6e" x="650.740234"/>
     <use xlink:href="#DejaVuSans-63" x="714.119141"/>
     <use xlink:href="#DejaVuSans-65" x="769.099609"/>
     <use xlink:href="#DejaVuSans-20" x="830.623047"/>
     <use xlink:href="#DejaVuSans-6f" x="862.410156"/>
     <use xlink:href="#DejaVuSans-66" x="923.591797"/>
     <use xlink:href="#DejaVuSans-20" x="958.796875"/>
     <use xlink:href="#DejaVuSans-73" x="990.583984"/>
     <use xlink:href="#DejaVuSans-69" x="1042.683594"/>
     <use xlink:href="#DejaVuSans-6e" x="1070.466797"/>
     <use xlink:href="#DejaVuSans-67" x="1133.845703"/>
     <use xlink:href="#DejaVuSans-6c" x="1197.322266"/>
     <use xlink:href="#DejaVuSans-65" x="1225.105469"/>
     <use xlink:href="#DejaVuSans-20" x="1286.628906"/>
     <use xlink:href="#DejaVuSans-76" x="1318.416016"/>
     <use xlink:href="#DejaVuSans-73" x="1377.595703"/>
     <use xlink:href="#DejaVuSans-20" x="1429.695312"/>
     <use xlink:href="#DejaVuSans-65" x="1461.482422"/>
     <use xlink:href="#DejaVuSans-6e" x="1523.005859"/>
     <use xlink:href="#DejaVuSans-73" x="1586.384766"/>
     <use xlink:href="#DejaVuSans-65" x="1638.484375"/>
     <use xlink:href="#DejaVuSans-6d" x="1700.007812"/>
     <use xlink:href="#DejaVuSans-62" x="1797.419922"/>
     <use xlink:href="#DejaVuSans-6c" x="1860.896484"/>
     <use xlink:href="#DejaVuSans-65" x="1888.679688"/>
     <use xlink:href="#DejaVuSans-20" x="1950.203125"/>
     <use xlink:href="#DejaVuSans-6d" x="1981.990234"/>
     <use xlink:href="#DejaVuSans-6f" x="2079.402344"/>
     <use xlink:href="#DejaVuSans-64" x="2140.583984"/>
     <use xlink:href="#DejaVuSans-65" x="2204.060547"/>
     <use xlink:href="#DejaVuSans-6c" x="2265.583984"/>
     <use xlink:href="#DejaVuSans-20" x="2293.367188"/>
     <use xlink:href="#DejaVuSans-6f" x="2325.154297"/>
     <use xlink:href="#DejaVuSans-6e" x="2386.335938"/>
     <use xlink:href="#DejaVuSans-20" x="2449.714844"/>
     <use xlink:href="#DejaVuSans-73" x="2481.501953"/>
     <use xlink:href="#DejaVuSans-75" x="2533.601562"/>
     <use xlink:href="#DejaVuSans-62" x="2596.980469"/>
     <use xlink:href="#DejaVuSans-67" x="2660.457031"/>
     <use xlink:href="#DejaVuSans-72" x="2723.933594"/>
     <use xlink:href="#DejaVuSans-6f" x="2762.796875"/>
     <use xlink:href="#DejaVuSans-75" x="2823.978516"/>
     <use xlink:href="#DejaVuSans-70" x="2887.357422"/>
     <use xlink:href="#DejaVuSans-2d" x="2950.833984"/>
     <use xlink:href="#DejaVuSans-62" x="2986.917969"/>
     <use xlink:href="#DejaVuSans-79" x="3050.394531"/>
     <use xlink:href="#DejaVuSans-2d" x="3107.824219"/>
     <use xlink:href="#DejaVuSans-72" x="3143.908203"/>
     <use xlink:href="#DejaVuSans-61" x="3185.021484"/>
     <use xlink:href="#DejaVuSans-63" x="3246.300781"/>
     <use xlink:href="#DejaVuSans-65" x="3301.28125"/>
     <use xlink:href="#DejaVuSans-3a" x="3362.804688"/>
     <use xlink:href="#DejaVuSans-20" x="3396.496094"/>
     <use xlink:href="#DejaVuSans-77" x="3428.283203"/>
     <use xlink:href="#DejaVuSans-68" x="3510.070312"/>
     <use xlink:href="#DejaVuSans-69" x="3573.449219"/>
     <use xlink:href="#DejaVuSans-74" x="3601.232422"/>
     <use xlink:href="#DejaVuSans-65" x="3640.441406"/>
    </g>
   </g>
   <g id="legend_1">
    <g id="patch_23">
     <path d="M 554.51851 84.830865 
L 709.99976 84.830865 
Q 711.99976 84.830865 711.99976 82.830865 
L 711.99976 25.118365 
Q 711.99976 23.118365 709.99976 23.118365 
L 554.51851 23.118365 
Q 552.51851 23.118365 552.51851 25.118365 
L 552.51851 82.830865 
Q 552.51851 84.830865 554.51851 84.830865 
z
" style="fill: #ffffff; opacity: 0.8; stroke: #cccccc; stroke-linejoin: miter"/>
    </g>
    <g id="patch_24">
     <path d="M 556.51851 34.716802 
L 576.51851 34.716802 
L 576.51851 27.716802 
L 556.51851 27.716802 
z
" style="fill: #6495ed"/>
    </g>
    <g id="text_29">
     <!-- one-model-for-all -->
     <g transform="translate(584.51851 34.716802)scale(0.1 -0.1)">
      <use xlink:href="#DejaVuSans-6f"/>
      <use xlink:href="#DejaVuSans-6e" x="61.181641"/>
      <use xlink:href="#DejaVuSans-65" x="124.560547"/>
      <use xlink:href="#DejaVuSans-2d" x="186.083984"/>
      <use xlink:href="#DejaVuSans-6d" x="222.167969"/>
      <use xlink:href="#DejaVuSans-6f" x="319.580078"/>
      <use xlink:href="#DejaVuSans-64" x="380.761719"/>
      <use xlink:href="#DejaVuSans-65" x="444.238281"/>
      <use xlink:href="#DejaVuSans-6c" x="505.761719"/>
      <use xlink:href="#DejaVuSans-2d" x="533.544922"/>
      <use xlink:href="#DejaVuSans-66" x="569.628906"/>
      <use xlink:href="#DejaVuSans-6f" x="604.833984"/>
      <use xlink:href="#DejaVuSans-72" x="666.015625"/>
      <use xlink:href="#DejaVuSans-2d" x="700.753906"/>
      <use xlink:href="#DejaVuSans-61" x="736.837891"/>
      <use xlink:href="#DejaVuSans-6c" x="798.117188"/>
      <use xlink:href="#DejaVuSans-6c" x="825.900391"/>
     </g>
    </g>
    <g id="patch_25">
     <path d="M 556.51851 49.394927 
L 576.51851 49.394927 
L 576.51851 42.394927 
L 556.51851 42.394927 
z
" style="fill: #0000ff"/>
    </g>
    <g id="text_30">
     <!-- one-model-per-subgroup -->
     <g transform="translate(584.51851 49.394927)scale(0.1 -0.1)">
      <use xlink:href="#DejaVuSans-6f"/>
      <use xlink:href="#DejaVuSans-6e" x="61.181641"/>
      <use xlink:href="#DejaVuSans-65" x="124.560547"/>
      <use xlink:href="#DejaVuSans-2d" x="186.083984"/>
      <use xlink:href="#DejaVuSans-6d" x="222.167969"/>
      <use xlink:href="#DejaVuSans-6f" x="319.580078"/>
      <use xlink:href="#DejaVuSans-64" x="380.761719"/>
      <use xlink:href="#DejaVuSans-65" x="444.238281"/>
      <use xlink:href="#DejaVuSans-6c" x="505.761719"/>
      <use xlink:href="#DejaVuSans-2d" x="533.544922"/>
      <use xlink:href="#DejaVuSans-70" x="569.628906"/>
      <use xlink:href="#DejaVuSans-65" x="633.105469"/>
      <use xlink:href="#DejaVuSans-72" x="694.628906"/>
      <use xlink:href="#DejaVuSans-2d" x="729.367188"/>
      <use xlink:href="#DejaVuSans-73" x="765.451172"/>
      <use xlink:href="#DejaVuSans-75" x="817.550781"/>
      <use xlink:href="#DejaVuSans-62" x="880.929688"/>
      <use xlink:href="#DejaVuSans-67" x="944.40625"/>
      <use xlink:href="#DejaVuSans-72" x="1007.882812"/>
      <use xlink:href="#DejaVuSans-6f" x="1046.746094"/>
      <use xlink:href="#DejaVuSans-75" x="1107.927734"/>
      <use xlink:href="#DejaVuSans-70" x="1171.306641"/>
     </g>
    </g>
    <g id="patch_26">
     <path d="M 556.51851 64.073052 
L 576.51851 64.073052 
L 576.51851 57.073052 
L 556.51851 57.073052 
z
" style="fill: #f4a460"/>
    </g>
    <g id="text_31">
     <!-- ensemble-on-all -->
     <g transform="translate(584.51851 64.073052)scale(0.1 -0.1)">
      <use xlink:href="#DejaVuSans-65"/>
      <use xlink:href="#DejaVuSans-6e" x="61.523438"/>
      <use xlink:href="#DejaVuSans-73" x="124.902344"/>
      <use xlink:href="#DejaVuSans-65" x="177.001953"/>
      <use xlink:href="#DejaVuSans-6d" x="238.525391"/>
      <use xlink:href="#DejaVuSans-62" x="335.9375"/>
      <use xlink:href="#DejaVuSans-6c" x="399.414062"/>
      <use xlink:href="#DejaVuSans-65" x="427.197266"/>
      <use xlink:href="#DejaVuSans-2d" x="488.720703"/>
      <use xlink:href="#DejaVuSans-6f" x="526.679688"/>
      <use xlink:href="#DejaVuSans-6e" x="587.861328"/>
      <use xlink:href="#DejaVuSans-2d" x="651.240234"/>
      <use xlink:href="#DejaVuSans-61" x="687.324219"/>
      <use xlink:href="#DejaVuSans-6c" x="748.603516"/>
      <use xlink:href="#DejaVuSans-6c" x="776.386719"/>
     </g>
    </g>
    <g id="patch_27">
     <path d="M 556.51851 78.751177 
L 576.51851 78.751177 
L 576.51851 71.751177 
L 556.51851 71.751177 
z
" style="fill: #a0522d"/>
    </g>
    <g id="text_32">
     <!-- ensemble-on-subgroup -->
     <g transform="translate(584.51851 78.751177)scale(0.1 -0.1)">
      <use xlink:href="#DejaVuSans-65"/>
      <use xlink:href="#DejaVuSans-6e" x="61.523438"/>
      <use xlink:href="#DejaVuSans-73" x="124.902344"/>
      <use xlink:href="#DejaVuSans-65" x="177.001953"/>
      <use xlink:href="#DejaVuSans-6d" x="238.525391"/>
      <use xlink:href="#DejaVuSans-62" x="335.9375"/>
      <use xlink:href="#DejaVuSans-6c" x="399.414062"/>
      <use xlink:href="#DejaVuSans-65" x="427.197266"/>
      <use xlink:href="#DejaVuSans-2d" x="488.720703"/>
      <use xlink:href="#DejaVuSans-6f" x="526.679688"/>
      <use xlink:href="#DejaVuSans-6e" x="587.861328"/>
      <use xlink:href="#DejaVuSans-2d" x="651.240234"/>
      <use xlink:href="#DejaVuSans-73" x="687.324219"/>
      <use xlink:href="#DejaVuSans-75" x="739.423828"/>
      <use xlink:href="#DejaVuSans-62" x="802.802734"/>
      <use xlink:href="#DejaVuSans-67" x="866.279297"/>
      <use xlink:href="#DejaVuSans-72" x="929.755859"/>
      <use xlink:href="#DejaVuSans-6f" x="968.619141"/>
      <use xlink:href="#DejaVuSans-75" x="1029.800781"/>
      <use xlink:href="#DejaVuSans-70" x="1093.179688"/>
     </g>
    </g>
   </g>
  </g>
 </g>
 <defs>
  <clipPath id="p66f01662c3">
   <rect x="44.70149" y="18.118365" width="672.29827" height="464.267645"/>
  </clipPath>
 </defs>
</svg>
